<?xml version="1.0" encoding="UTF-8"?>
<!DOCTYPE svg PUBLIC "-//W3C//DTD SVG 1.1//EN" "http://www.w3.org/Graphics/SVG/1.1/DTD/svg11.dtd">
<svg xmlns="http://www.w3.org/2000/svg" version="1.1" width="1920px" height="1920px" style="shape-rendering:geometricPrecision; text-rendering:geometricPrecision; image-rendering:optimizeQuality; fill-rule:evenodd; clip-rule:evenodd" xmlns:xlink="http://www.w3.org/1999/xlink">
<g><path style="opacity:1" fill="#660704" d="M 1068.5,465.5 C 1070.85,465.408 1072.51,464.408 1073.5,462.5C 1099.35,449.075 1125.35,435.909 1151.5,423C 1166.7,416.995 1182.36,415.162 1198.5,417.5C 1200.78,419.223 1203.45,419.889 1206.5,419.5C 1231.72,425.225 1250.89,439.225 1264,461.5C 1271.12,476.737 1277.95,492.07 1284.5,507.5C 1285.18,509.176 1286.52,509.843 1288.5,509.5C 1314.13,514.304 1333.96,527.637 1348,549.5C 1375.32,607.802 1401.82,666.468 1427.5,725.5C 1428.05,727.552 1429.05,727.885 1430.5,726.5C 1444.9,722.578 1457.07,726.245 1467,737.5C 1486.94,779.713 1506.61,822.047 1526,864.5C 1528.41,869.314 1530.24,874.314 1531.5,879.5C 1531.98,884.533 1531.31,889.366 1529.5,894C 1529.99,895.138 1530.32,896.305 1530.5,897.5C 1527.86,905.435 1522.86,911.435 1515.5,915.5C 1514.39,916.723 1514.22,918.056 1515,919.5C 1535.66,964.649 1555.82,1009.98 1575.5,1055.5C 1575.41,1058.15 1576.08,1060.49 1577.5,1062.5C 1585.96,1101.96 1574.29,1134.12 1542.5,1159C 1386.43,1244.7 1230.1,1329.87 1073.5,1414.5C 1071.83,1414.5 1070.17,1414.5 1068.5,1414.5C 1068.5,1415.5 1068.5,1416.5 1068.5,1417.5C 982.86,1463.99 897.194,1510.49 811.5,1557C 787.383,1566.99 762.717,1569.16 737.5,1563.5C 735.485,1562.08 733.152,1561.41 730.5,1561.5C 701.299,1553.62 678.632,1536.95 662.5,1511.5C 662.759,1509.01 661.759,1507.34 659.5,1506.5C 611.311,1412.79 563.644,1318.79 516.5,1224.5C 516.913,1221.68 515.913,1219.68 513.5,1218.5C 468.015,1128.86 422.515,1039.2 377,949.5C 367.184,925.031 365.35,900.031 371.5,874.5C 372.924,872.485 373.59,870.152 373.5,867.5C 381.534,838.584 397.201,814.751 420.5,796C 402.77,785.474 385.103,774.974 367.5,764.5C 367.027,763.094 366.027,762.427 364.5,762.5C 362.036,758.722 361.87,754.722 364,750.5C 400.096,688.59 435.93,626.59 471.5,564.5C 472.906,564.027 473.573,563.027 473.5,561.5C 500.976,513.221 528.476,464.888 556,416.5C 561.253,410.38 567.086,409.88 573.5,415C 633.545,450.022 693.878,484.522 754.5,518.5C 829.303,465.592 903.969,412.425 978.5,359C 983.966,356.452 988.8,357.286 993,361.5C 1017.33,395.833 1041.67,430.167 1066,464.5C 1066.67,465.252 1067.5,465.586 1068.5,465.5 Z"/></g>
<g><path style="opacity:1" fill="#2bb65f" d="M 1112.5,576.5 C 1108.25,579.209 1103.75,581.543 1099,583.5C 1098.23,583.355 1097.56,583.022 1097,582.5C 1065.89,538.388 1034.39,494.554 1002.5,451C 1001.13,450.125 999.627,449.625 998,449.5C 993.048,452.056 987.882,454.222 982.5,456C 967.226,458.692 955.226,453.692 946.5,441C 943.833,440.333 941.167,440.333 938.5,441C 876.912,485.044 815.412,529.211 754,573.5C 752.699,575.365 752.365,577.365 753,579.5C 761.665,593.513 761.665,607.513 753,621.5C 750.629,624.206 747.963,626.539 745,628.5C 743.578,631.03 743.245,633.697 744,636.5C 765.798,667.93 787.965,699.097 810.5,730C 802.922,733.706 795.422,737.539 788,741.5C 754.281,694.621 720.781,647.621 687.5,600.5C 784.9,531.048 882.4,461.714 980,392.5C 983.3,395.472 986.3,398.805 989,402.5C 1030.39,460.379 1071.55,518.379 1112.5,576.5 Z"/></g>
<g><path style="opacity:1" fill="#614c45" d="M 1198.5,417.5 C 1201.37,417.802 1204.04,418.469 1206.5,419.5C 1203.45,419.889 1200.78,419.223 1198.5,417.5 Z"/></g>
<g><path style="opacity:1" fill="#9cdbb3" d="M 728.5,537.5 C 676.535,507.691 624.535,478.191 572.5,449C 512.239,552.028 452.906,655.528 394.5,759.5C 390.861,757.345 387.194,755.178 383.5,753C 444.833,646.667 506.167,540.333 567.5,434C 569.598,434.032 571.598,434.699 573.5,436C 628.366,467.596 683.033,499.429 737.5,531.5C 734.958,534.265 731.958,536.265 728.5,537.5 Z"/></g>
<g><path style="opacity:1" fill="#f2c5a1" d="M 1185.5,434.5 C 1151.05,451.561 1116.71,468.894 1082.5,486.5C 1080.5,485.024 1078.83,483.191 1077.5,481C 1104.96,466.527 1132.63,452.527 1160.5,439C 1168.56,435.989 1176.9,434.489 1185.5,434.5 Z"/></g>
<g><path style="opacity:1" fill="#e57d23" d="M 1185.5,434.5 C 1207.9,435.535 1226.57,444.368 1241.5,461C 1225.59,454.286 1208.92,451.286 1191.5,452C 1180.7,453.379 1170.36,456.379 1160.5,461C 1137.22,473.225 1113.72,485.058 1090,496.5C 1087.57,494.993 1085.57,492.993 1084,490.5C 1083.21,489.255 1082.71,487.922 1082.5,486.5C 1116.71,468.894 1151.05,451.561 1185.5,434.5 Z"/></g>
<g><path style="opacity:1" fill="#2bb65f" d="M 728.5,537.5 C 724.494,540.934 720.328,544.268 716,547.5C 683.248,528.54 650.415,509.707 617.5,491C 615.167,490.333 612.833,490.333 610.5,491C 597.642,510.257 580.808,514.757 560,504.5C 558.373,504.625 556.873,505.125 555.5,506C 516.955,571.588 478.788,637.421 441,703.5C 440.294,705.971 440.627,708.305 442,710.5C 461.079,723.237 465.579,739.903 455.5,760.5C 455.648,763.63 456.982,766.13 459.5,768C 502.663,792.414 545.663,817.081 588.5,842C 579.564,847.472 570.231,851.805 560.5,855C 505.279,822.939 449.945,791.106 394.5,759.5C 452.906,655.528 512.239,552.028 572.5,449C 624.535,478.191 676.535,507.691 728.5,537.5 Z"/></g>
<g><path style="opacity:1" fill="#4feb90" d="M 984.5,641.5 C 983.876,641.083 983.543,640.416 983.5,639.5C 992.119,611.504 983.785,590.337 958.5,576C 929.449,565.792 907.282,573.959 892,600.5C 883.592,624.124 888.759,644.29 907.5,661C 912.888,664.361 918.554,667.194 924.5,669.5C 925.298,669.957 925.631,670.624 925.5,671.5C 892.092,688.621 858.592,705.621 825,722.5C 803.721,693.452 782.554,664.286 761.5,635C 775.804,619.102 779.138,601.102 771.5,581C 771.759,579.739 772.426,578.739 773.5,578C 829.333,538.167 885.167,498.333 941,458.5C 957.546,473.063 976.046,476.23 996.5,468C 1025.38,508.921 1054.38,549.755 1083.5,590.5C 1083.02,591.478 1082.36,592.311 1081.5,593C 1049.11,609.193 1016.78,625.36 984.5,641.5 Z"/></g>
<g><path style="opacity:1" fill="#614741" d="M 1073.5,462.5 C 1072.51,464.408 1070.85,465.408 1068.5,465.5C 1069.66,463.75 1071.33,462.75 1073.5,462.5 Z"/></g>
<g><path style="opacity:1" fill="#bf5718" d="M 1190.5,469.5 C 1222.49,467.326 1246.82,479.659 1263.5,506.5C 1252.32,509.217 1241.32,512.717 1230.5,517C 1199.47,532.849 1168.47,548.682 1137.5,564.5C 1126.53,549.027 1115.36,533.693 1104,518.5C 1102.13,516.431 1101.13,514.098 1101,511.5C 1124.28,499.779 1147.44,487.946 1170.5,476C 1177.12,473.293 1183.79,471.126 1190.5,469.5 Z"/></g>
<g><path style="opacity:1" fill="#517b78" d="M 1284.5,507.5 C 1286,507.989 1287.33,508.655 1288.5,509.5C 1286.52,509.843 1285.18,509.176 1284.5,507.5 Z"/></g>
<g><path style="opacity:1" fill="#4feb90" d="M 689.5,635.5 C 678.796,643.179 668.129,650.846 657.5,658.5C 656.833,658.5 656.167,658.5 655.5,658.5C 629.838,658.75 613.005,671.084 605,695.5C 600.305,726.627 612.805,747.127 642.5,757C 670.534,760.494 689.867,749.327 700.5,723.5C 712.165,738.173 722.832,753.506 732.5,769.5C 690.312,791.094 647.979,812.427 605.5,833.5C 561.117,808.608 517.117,783.108 473.5,757C 479.553,737.046 475.053,719.879 460,705.5C 459.333,704.5 459.333,703.5 460,702.5C 494.04,642.918 528.207,583.418 562.5,524C 583.749,528.94 602.082,523.773 617.5,508.5C 645.371,524.866 673.371,541.033 701.5,557C 688.333,566.833 675.167,576.667 662,586.5C 660.121,589.8 660.121,593.134 662,596.5C 671.678,609.208 680.844,622.208 689.5,635.5 Z"/></g>
<g><path style="opacity:1" fill="#a7dfbb" d="M 1112.5,576.5 C 1071.55,518.379 1030.39,460.379 989,402.5C 986.3,398.805 983.3,395.472 980,392.5C 882.4,461.714 784.9,531.048 687.5,600.5C 685.503,598.487 683.836,596.154 682.5,593.5C 782.049,521.805 881.882,450.472 982,379.5C 1029.06,443.079 1075.22,507.412 1120.5,572.5C 1118.09,574.372 1115.42,575.705 1112.5,576.5 Z"/></g>
<g><path style="opacity:1" fill="#e67d23" d="M 1274.5,525.5 C 1277.1,526.265 1279.76,526.599 1282.5,526.5C 1292.99,542.474 1301.65,559.474 1308.5,577.5C 1308.38,578.107 1308.04,578.44 1307.5,578.5C 1293.1,566.209 1276.76,562.709 1258.5,568C 1253.97,573.159 1254.97,576.993 1261.5,579.5C 1276.92,575.215 1290.25,578.715 1301.5,590C 1303.5,590.667 1305.5,590.667 1307.5,590C 1309.43,589.578 1310.43,588.411 1310.5,586.5C 1311.12,586.389 1311.62,586.056 1312,585.5C 1317.31,596.622 1322.48,607.789 1327.5,619C 1326.26,619.232 1325.26,619.732 1324.5,620.5C 1320.94,622.087 1319.78,624.754 1321,628.5C 1327.59,642.016 1333.92,655.683 1340,669.5C 1342.17,674.333 1345.67,675.667 1350.5,673.5C 1351.5,673.47 1352.16,673.97 1352.5,675C 1357.13,685.08 1361.47,695.247 1365.5,705.5C 1361.89,705.78 1359.89,707.78 1359.5,711.5C 1365.77,725.049 1371.77,738.716 1377.5,752.5C 1377.17,753.167 1376.83,753.833 1376.5,754.5C 1329.64,778.427 1282.98,802.593 1236.5,827C 1196.26,855.009 1181.09,893.175 1191,941.5C 1198.78,968.093 1214.28,988.759 1237.5,1003.5C 1240.17,1008.69 1243.84,1013.19 1248.5,1017C 1279.07,1040.82 1312.4,1045.49 1348.5,1031C 1391.07,1008.88 1433.74,987.046 1476.5,965.5C 1483.09,982.02 1490.26,998.353 1498,1014.5C 1498.67,1015.25 1499.5,1015.59 1500.5,1015.5C 1502.37,1016.16 1504.37,1016.83 1506.5,1017.5C 1511.1,1027.3 1515.1,1037.3 1518.5,1047.5C 1514.41,1047.99 1512.41,1050.32 1512.5,1054.5C 1514.28,1069.85 1512.28,1084.69 1506.5,1099C 1506.4,1102.06 1507.73,1104.23 1510.5,1105.5C 1505.39,1116.61 1497.73,1125.61 1487.5,1132.5C 1485.61,1128.83 1482.61,1127.66 1478.5,1129C 1463.76,1136.79 1449.26,1144.95 1435,1153.5C 1434.3,1155.93 1434.46,1158.26 1435.5,1160.5C 1426.45,1166.87 1416.79,1172.54 1406.5,1177.5C 1405.82,1177.14 1405.15,1176.8 1404.5,1176.5C 1402.91,1172.94 1400.25,1171.78 1396.5,1173C 1382.33,1180.92 1367.99,1188.59 1353.5,1196C 1350.91,1199.16 1350.91,1202.33 1353.5,1205.5C 1351.86,1207.26 1349.86,1208.76 1347.5,1210C 1339.11,1214.19 1330.78,1218.36 1322.5,1222.5C 1321.27,1218.42 1318.61,1216.59 1314.5,1217C 1299.27,1224.53 1284.43,1232.7 1270,1241.5C 1269.07,1244.82 1269.57,1247.82 1271.5,1250.5C 1261.89,1256.65 1251.89,1262.31 1241.5,1267.5C 1240.82,1266.76 1240.15,1266.09 1239.5,1265.5C 1237.61,1261.83 1234.61,1260.66 1230.5,1262C 1215.43,1269.28 1200.93,1277.45 1187,1286.5C 1186.11,1289.5 1186.61,1292.16 1188.5,1294.5C 1188.59,1295.5 1188.25,1296.33 1187.5,1297C 1177.83,1302.17 1168.17,1307.33 1158.5,1312.5C 1157.82,1311.4 1157.16,1310.4 1156.5,1309.5C 1155.04,1305.95 1152.38,1304.78 1148.5,1306C 1133.76,1313.45 1119.26,1321.29 1105,1329.5C 1102.48,1333.75 1103.31,1337.09 1107.5,1339.5C 1096.84,1345.92 1086.01,1352.25 1075,1358.5C 1074.6,1358.27 1074.43,1357.94 1074.5,1357.5C 1074.04,1351.87 1071.04,1349.37 1065.5,1350C 1051.99,1357.59 1038.33,1364.92 1024.5,1372C 1019.19,1375.96 1019.19,1379.8 1024.5,1383.5C 1024.61,1384.12 1024.94,1384.62 1025.5,1385C 1014.22,1391.8 1002.89,1397.64 991.5,1402.5C 992.003,1395.84 989.003,1393.34 982.5,1395C 967.761,1402.45 953.261,1410.29 939,1418.5C 937.071,1424.11 938.905,1427.44 944.5,1428.5C 933.392,1435.23 922.059,1441.73 910.5,1448C 909.563,1448.69 908.897,1448.53 908.5,1447.5C 909.304,1440.58 906.304,1437.74 899.5,1439C 884.757,1446.79 870.257,1454.95 856,1463.5C 854.68,1469.68 857.18,1472.68 863.5,1472.5C 829.464,1492.12 794.464,1511.29 758.5,1530C 747.475,1534.74 736.142,1537.9 724.5,1539.5C 713.081,1530.92 703.581,1520.58 696,1508.5C 601.488,1322.48 507.155,1136.14 413,949.5C 396.102,896.038 407.936,850.038 448.5,811.5C 452.469,813.151 456.135,815.318 459.5,818C 452.404,823.092 445.904,828.926 440,835.5C 435.973,840.217 432.973,845.551 431,851.5C 428.224,869.439 435.39,881.606 452.5,888C 457.982,890.121 463.649,891.454 469.5,892C 490.148,893.544 510.481,891.71 530.5,886.5C 550.667,886.084 570,881.918 588.5,874C 796.386,767.558 1004.05,660.892 1211.5,554C 1232.2,543.822 1253.2,534.322 1274.5,525.5 Z"/></g>
<g><path style="opacity:1" fill="#bf5718" d="M 1282.5,526.5 C 1309.22,531.609 1328.06,546.609 1339,571.5C 1363.4,626.208 1387.9,680.875 1412.5,735.5C 1404.71,740.059 1396.71,744.059 1388.5,747.5C 1383.23,734.296 1377.4,721.296 1371,708.5C 1369.74,706.393 1367.9,705.393 1365.5,705.5C 1361.47,695.247 1357.13,685.08 1352.5,675C 1352.16,673.97 1351.5,673.47 1350.5,673.5C 1352.39,671.164 1352.89,668.498 1352,665.5C 1344.95,650.559 1337.78,635.726 1330.5,621C 1328.53,620.505 1326.53,620.338 1324.5,620.5C 1325.26,619.732 1326.26,619.232 1327.5,619C 1322.48,607.789 1317.31,596.622 1312,585.5C 1311.62,586.056 1311.12,586.389 1310.5,586.5C 1310.98,583.212 1309.98,580.545 1307.5,578.5C 1308.04,578.44 1308.38,578.107 1308.5,577.5C 1301.65,559.474 1292.99,542.474 1282.5,526.5 Z"/></g>
<g><path style="opacity:1" fill="#586562" d="M 473.5,561.5 C 473.573,563.027 472.906,564.027 471.5,564.5C 471.427,562.973 472.094,561.973 473.5,561.5 Z"/></g>
<g><path style="opacity:1" fill="#690402" d="M 1307.5,578.5 C 1309.98,580.545 1310.98,583.212 1310.5,586.5C 1310.43,588.411 1309.43,589.578 1307.5,590C 1305.5,590.667 1303.5,590.667 1301.5,590C 1290.25,578.715 1276.92,575.215 1261.5,579.5C 1254.97,576.993 1253.97,573.159 1258.5,568C 1276.76,562.709 1293.1,566.209 1307.5,578.5 Z"/></g>
<g><path style="opacity:1" fill="#1fbb61" d="M 984.5,641.5 C 964.935,651.782 945.268,661.782 925.5,671.5C 925.631,670.624 925.298,669.957 924.5,669.5C 918.554,667.194 912.888,664.361 907.5,661C 888.759,644.29 883.592,624.124 892,600.5C 907.282,573.959 929.449,565.792 958.5,576C 983.785,590.337 992.119,611.504 983.5,639.5C 983.543,640.416 983.876,641.083 984.5,641.5 Z"/></g>
<g><path style="opacity:1" fill="#690302" d="M 1216.5,587.5 C 1225.82,587.655 1227.82,591.488 1222.5,599C 1208.5,606 1194.5,613 1180.5,620C 1175.35,621.677 1172.35,619.844 1171.5,614.5C 1171.76,612.813 1172.43,611.313 1173.5,610C 1188.21,602.981 1202.54,595.481 1216.5,587.5 Z"/></g>
<g><path style="opacity:1" fill="#680301" d="M 1324.5,620.5 C 1326.53,620.338 1328.53,620.505 1330.5,621C 1337.78,635.726 1344.95,650.559 1352,665.5C 1352.89,668.498 1352.39,671.164 1350.5,673.5C 1345.67,675.667 1342.17,674.333 1340,669.5C 1333.92,655.683 1327.59,642.016 1321,628.5C 1319.78,624.754 1320.94,622.087 1324.5,620.5 Z"/></g>
<g><path style="opacity:1" fill="#f3c6a3" d="M 1274.5,525.5 C 1253.2,534.322 1232.2,543.822 1211.5,554C 1004.05,660.892 796.386,767.558 588.5,874C 570,881.918 550.667,886.084 530.5,886.5C 543.661,882.387 556.661,877.554 569.5,872C 791.864,759.65 1014.2,646.984 1236.5,534C 1248.39,527.694 1261.06,524.861 1274.5,525.5 Z"/></g>
<g><path style="opacity:1" fill="#690402" d="M 1133.5,629.5 C 1141.57,630.093 1143.57,633.926 1139.5,641C 1125.01,648.078 1110.68,655.411 1096.5,663C 1089.68,663.494 1087.18,660.328 1089,653.5C 1089.5,653 1090,652.5 1090.5,652C 1105.21,644.981 1119.54,637.481 1133.5,629.5 Z"/></g>
<g><path style="opacity:1" fill="#56a365" d="M 689.5,635.5 C 717.164,673.179 744.497,711.179 771.5,749.5C 758.639,756.431 745.639,763.097 732.5,769.5C 722.832,753.506 712.165,738.173 700.5,723.5C 700.167,722.833 699.833,722.167 699.5,721.5C 706.659,694.303 697.326,674.47 671.5,662C 666.895,660.515 662.228,659.349 657.5,658.5C 668.129,650.846 678.796,643.179 689.5,635.5 Z"/></g>
<g><path style="opacity:1" fill="#1fbc61" d="M 655.5,658.5 C 669.911,679.646 684.577,700.646 699.5,721.5C 699.833,722.167 700.167,722.833 700.5,723.5C 689.867,749.327 670.534,760.494 642.5,757C 612.805,747.127 600.305,726.627 605,695.5C 613.005,671.084 629.838,658.75 655.5,658.5 Z"/></g>
<g><path style="opacity:1" fill="#348244" d="M 655.5,658.5 C 656.167,658.5 656.833,658.5 657.5,658.5C 662.228,659.349 666.895,660.515 671.5,662C 697.326,674.47 706.659,694.303 699.5,721.5C 684.577,700.646 669.911,679.646 655.5,658.5 Z"/></g>
<g><path style="opacity:1" fill="#680302" d="M 1049.5,672.5 C 1057.74,672.228 1060.08,675.728 1056.5,683C 1042.01,690.078 1027.68,697.411 1013.5,705C 1006.67,706.167 1003.83,703.333 1005,696.5C 1005.83,695.667 1006.67,694.833 1007.5,694C 1021.72,687.059 1035.72,679.892 1049.5,672.5 Z"/></g>
<g><path style="opacity:1" fill="#690302" d="M 966.5,714.5 C 972.82,714.32 975.32,717.32 974,723.5C 959.708,731.729 945.208,739.563 930.5,747C 923.672,748.824 920.506,746.324 921,739.5C 922.167,738.333 923.333,737.167 924.5,736C 938.717,729.059 952.717,721.892 966.5,714.5 Z"/></g>
<g><path style="opacity:1" fill="#468d8e" d="M 1427.5,725.5 C 1428.39,726.11 1429.39,726.443 1430.5,726.5C 1429.05,727.885 1428.05,727.552 1427.5,725.5 Z"/></g>
<g><path style="opacity:1" fill="#f3c7a3" d="M 1450.5,747.5 C 1386.33,780.082 1322.33,812.916 1258.5,846C 1219.32,872.206 1204.99,908.373 1215.5,954.5C 1199.78,921.854 1202.62,890.854 1224,861.5C 1231.33,852.83 1239.83,845.663 1249.5,840C 1311.5,808 1373.5,776 1435.5,744C 1438.83,743.333 1442.17,743.333 1445.5,744C 1447.88,744.223 1449.55,745.39 1450.5,747.5 Z"/></g>
<g><path style="opacity:1" fill="#e67d23" d="M 1450.5,747.5 C 1453.05,749.578 1454.88,752.244 1456,755.5C 1473.46,793.414 1490.63,831.414 1507.5,869.5C 1504.69,874.476 1500.69,878.309 1495.5,881C 1436.9,911.303 1378.23,941.636 1319.5,972C 1285.91,987.616 1253.58,985.45 1222.5,965.5C 1219.42,962.35 1217.09,958.683 1215.5,954.5C 1204.99,908.373 1219.32,872.206 1258.5,846C 1322.33,812.916 1386.33,780.082 1450.5,747.5 Z"/></g>
<g><path style="opacity:1" fill="#690302" d="M 881.5,757.5 C 890.487,756.665 892.82,760.165 888.5,768C 874.078,775.142 859.745,782.475 845.5,790C 838.194,790.343 835.861,787.01 838.5,780C 852.895,772.471 867.228,764.971 881.5,757.5 Z"/></g>
<g><path style="opacity:1" fill="#5a6261" d="M 364.5,762.5 C 366.027,762.427 367.027,763.094 367.5,764.5C 365.973,764.573 364.973,763.906 364.5,762.5 Z"/></g>
<g><path style="opacity:1" fill="#690402" d="M 798.5,799.5 C 806.52,799.392 808.854,802.892 805.5,810C 791.354,817.573 777.021,824.907 762.5,832C 754.193,832.704 751.859,829.371 755.5,822C 769.832,814.501 784.165,807.001 798.5,799.5 Z"/></g>
<g><path style="opacity:1" fill="#f4c8a4" d="M 448.5,811.5 C 407.936,850.038 396.102,896.038 413,949.5C 507.155,1136.14 601.488,1322.48 696,1508.5C 703.581,1520.58 713.081,1530.92 724.5,1539.5C 725.5,1539.83 726.167,1540.5 726.5,1541.5C 705.071,1533.03 688.238,1519.03 676,1499.5C 580.807,1312.45 486.14,1125.11 392,937.5C 378.715,890.017 389.882,849.183 425.5,815C 429.479,811.344 433.812,808.178 438.5,805.5C 442.135,807.165 445.469,809.165 448.5,811.5 Z"/></g>
<g><path style="opacity:1" fill="#be5618" d="M 475.5,828.5 C 478.425,828.46 481.091,829.293 483.5,831C 502.336,842.253 521.336,853.253 540.5,864C 519.261,872.181 497.261,875.848 474.5,875C 464.659,874.578 456.159,871.078 449,864.5C 447.578,861.97 447.245,859.303 448,856.5C 449.584,852.325 451.918,848.659 455,845.5C 461.44,839.215 468.273,833.548 475.5,828.5 Z"/></g>
<g><path style="opacity:1" fill="#690402" d="M 715.5,841.5 C 721.765,841.363 724.265,844.363 723,850.5C 722.167,852 721,853.167 719.5,854C 705.5,861 691.5,868 677.5,875C 674.083,875.876 671.583,874.709 670,871.5C 668.959,868.364 669.793,865.864 672.5,864C 687.241,856.966 701.575,849.466 715.5,841.5 Z"/></g>
<g><path style="opacity:1" fill="#614944" d="M 373.5,867.5 C 373.59,870.152 372.924,872.485 371.5,874.5C 371.41,871.848 372.076,869.515 373.5,867.5 Z"/></g>
<g><path style="opacity:1" fill="#660101" d="M 1316.5,883.5 C 1331.89,899.011 1334.73,916.678 1325,936.5C 1311.73,954.867 1294.23,960.534 1272.5,953.5C 1254.11,943.715 1245.94,928.381 1248,907.5C 1254.91,883.632 1270.74,872.465 1295.5,874C 1303.28,875.559 1310.28,878.725 1316.5,883.5 Z"/></g>
<g><path style="opacity:1" fill="#bf5718" d="M 1507.5,869.5 C 1513.57,876.538 1515.4,884.538 1513,893.5C 1511.95,895.09 1510.79,896.59 1509.5,898C 1447.47,930.015 1385.47,962.015 1323.5,994C 1288.51,1006.62 1257.34,1000.46 1230,975.5C 1227.28,972.29 1224.78,968.956 1222.5,965.5C 1253.58,985.45 1285.91,987.616 1319.5,972C 1378.23,941.636 1436.9,911.303 1495.5,881C 1500.69,878.309 1504.69,874.476 1507.5,869.5 Z"/></g>
<g><path style="opacity:1" fill="#680302" d="M 630.5,884.5 C 637.99,883.302 640.823,886.302 639,893.5C 624.562,901.97 609.729,909.804 594.5,917C 589.248,918.856 586.581,917.022 586.5,911.5C 586.406,909.088 587.406,907.255 589.5,906C 603.575,899.299 617.242,892.132 630.5,884.5 Z"/></g>
<g><path style="opacity:1" fill="#812f2e" d="M 1278.5,886.5 C 1286.44,886.682 1289.27,890.682 1287,898.5C 1283.17,909.358 1275.67,915.191 1264.5,916C 1260.28,912.178 1259.45,907.678 1262,902.5C 1266.07,895.592 1271.57,890.258 1278.5,886.5 Z"/></g>
<g><path style="opacity:1" fill="#633931" d="M 1531.5,879.5 C 1532.16,881.81 1532.5,884.31 1532.5,887C 1532.7,890.805 1532.03,894.305 1530.5,897.5C 1530.32,896.305 1529.99,895.138 1529.5,894C 1531.31,889.366 1531.98,884.533 1531.5,879.5 Z"/></g>
<g><path style="opacity:1" fill="#f2c5a1" d="M 1316.5,883.5 C 1339.08,898.899 1343.91,918.899 1331,943.5C 1319.02,958.709 1303.52,964.209 1284.5,960C 1279.99,958.582 1275.99,956.415 1272.5,953.5C 1294.23,960.534 1311.73,954.867 1325,936.5C 1334.73,916.678 1331.89,899.011 1316.5,883.5 Z"/></g>
<g><path style="opacity:1" fill="#690402" d="M 547.5,926.5 C 552.42,925.784 555.42,927.784 556.5,932.5C 555.394,935.441 553.394,937.608 550.5,939C 537.499,944.334 524.166,948.667 510.5,952C 502.679,954.165 499.179,951.332 500,943.5C 500.903,942.299 502.069,941.465 503.5,941C 518.771,937.631 533.438,932.798 547.5,926.5 Z"/></g>
<g><path style="opacity:1" fill="#bf5718" d="M 726.5,1541.5 C 726.167,1540.5 725.5,1539.83 724.5,1539.5C 736.142,1537.9 747.475,1534.74 758.5,1530C 794.464,1511.29 829.464,1492.12 863.5,1472.5C 878.626,1464.44 893.626,1456.1 908.5,1447.5C 908.897,1448.53 909.563,1448.69 910.5,1448C 922.059,1441.73 933.392,1435.23 944.5,1428.5C 960.692,1420.58 976.359,1411.91 991.5,1402.5C 1002.89,1397.64 1014.22,1391.8 1025.5,1385C 1024.94,1384.62 1024.61,1384.12 1024.5,1383.5C 1028.13,1383.84 1031.46,1383.01 1034.5,1381C 1046.67,1374.08 1059.01,1367.41 1071.5,1361C 1072.64,1359.85 1073.64,1358.69 1074.5,1357.5C 1074.43,1357.94 1074.6,1358.27 1075,1358.5C 1086.01,1352.25 1096.84,1345.92 1107.5,1339.5C 1109.2,1339.66 1110.87,1339.49 1112.5,1339C 1127.24,1331.21 1141.74,1323.05 1156,1314.5C 1156.49,1312.87 1156.66,1311.2 1156.5,1309.5C 1157.16,1310.4 1157.82,1311.4 1158.5,1312.5C 1168.17,1307.33 1177.83,1302.17 1187.5,1297C 1188.25,1296.33 1188.59,1295.5 1188.5,1294.5C 1190.4,1295.51 1192.4,1295.68 1194.5,1295C 1209.73,1287.47 1224.57,1279.3 1239,1270.5C 1239.49,1268.87 1239.66,1267.2 1239.5,1265.5C 1240.15,1266.09 1240.82,1266.76 1241.5,1267.5C 1251.89,1262.31 1261.89,1256.65 1271.5,1250.5C 1273.86,1250.66 1276.19,1250.5 1278.5,1250C 1293.57,1242.72 1308.07,1234.55 1322,1225.5C 1322.48,1224.55 1322.65,1223.55 1322.5,1222.5C 1330.78,1218.36 1339.11,1214.19 1347.5,1210C 1349.86,1208.76 1351.86,1207.26 1353.5,1205.5C 1355.74,1206.54 1358.07,1206.7 1360.5,1206C 1375.24,1198.55 1389.74,1190.71 1404,1182.5C 1404.5,1180.53 1404.66,1178.53 1404.5,1176.5C 1405.15,1176.8 1405.82,1177.14 1406.5,1177.5C 1416.79,1172.54 1426.45,1166.87 1435.5,1160.5C 1437.84,1162.39 1440.5,1162.89 1443.5,1162C 1457.5,1154.33 1471.5,1146.67 1485.5,1139C 1487.23,1137.21 1487.9,1135.04 1487.5,1132.5C 1497.73,1125.61 1505.39,1116.61 1510.5,1105.5C 1513.96,1105.85 1516.46,1104.52 1518,1101.5C 1524.44,1085.78 1526.77,1069.45 1525,1052.5C 1523.81,1049.47 1521.64,1047.8 1518.5,1047.5C 1515.1,1037.3 1511.1,1027.3 1506.5,1017.5C 1504.37,1016.83 1502.37,1016.16 1500.5,1015.5C 1506.33,1015.84 1508.83,1013.18 1508,1007.5C 1501.3,992.592 1494.46,977.758 1487.5,963C 1482.89,960.428 1479.22,961.261 1476.5,965.5C 1433.74,987.046 1391.07,1008.88 1348.5,1031C 1312.4,1045.49 1279.07,1040.82 1248.5,1017C 1243.84,1013.19 1240.17,1008.69 1237.5,1003.5C 1267.69,1020.92 1299.03,1023.09 1331.5,1010C 1386.81,982.01 1441.81,953.51 1496.5,924.5C 1497.8,925.09 1498.63,926.09 1499,927.5C 1512.73,958.619 1526.73,989.619 1541,1020.5C 1548.22,1036.28 1554.89,1052.28 1561,1068.5C 1566.33,1102.88 1554.5,1129.38 1525.5,1148C 1285.33,1278.92 1044.99,1409.59 804.5,1540C 778.639,1550.71 752.639,1551.21 726.5,1541.5 Z"/></g>
<g><path style="opacity:1" fill="#690402" d="M 433.5,935.5 C 435.857,935.337 438.19,935.503 440.5,936C 447.225,940.243 454.559,942.909 462.5,944C 464.478,946.497 464.978,949.331 464,952.5C 462.53,954.152 460.697,955.152 458.5,955.5C 448.542,954.435 439.709,950.768 432,944.5C 431.068,941.177 431.568,938.177 433.5,935.5 Z"/></g>
<g><path style="opacity:1" fill="#ec964d" d="M 759.5,947.5 C 775.307,946.146 788.14,951.479 798,963.5C 818.589,1004.35 838.923,1045.35 859,1086.5C 863.178,1105.96 857.012,1121.13 840.5,1132C 808.615,1147.78 776.949,1163.78 745.5,1180C 726.865,1187.08 711.365,1182.91 699,1167.5C 679.83,1127.16 660.163,1087.16 640,1047.5C 634.633,1034.58 635.633,1022.25 643,1010.5C 646.867,1006.3 651.033,1002.47 655.5,999C 690.191,981.487 724.858,964.32 759.5,947.5 Z"/></g>
<g><path style="opacity:1" fill="#680301" d="M 1500.5,1015.5 C 1499.5,1015.59 1498.67,1015.25 1498,1014.5C 1490.26,998.353 1483.09,982.02 1476.5,965.5C 1479.22,961.261 1482.89,960.428 1487.5,963C 1494.46,977.758 1501.3,992.592 1508,1007.5C 1508.83,1013.18 1506.33,1015.84 1500.5,1015.5 Z"/></g>
<g><path style="opacity:1" fill="#680302" d="M 1518.5,1047.5 C 1521.64,1047.8 1523.81,1049.47 1525,1052.5C 1526.77,1069.45 1524.44,1085.78 1518,1101.5C 1516.46,1104.52 1513.96,1105.85 1510.5,1105.5C 1507.73,1104.23 1506.4,1102.06 1506.5,1099C 1512.28,1084.69 1514.28,1069.85 1512.5,1054.5C 1512.41,1050.32 1514.41,1047.99 1518.5,1047.5 Z"/></g>
<g><path style="opacity:1" fill="#62544e" d="M 1575.5,1055.5 C 1576.92,1057.51 1577.59,1059.85 1577.5,1062.5C 1576.08,1060.49 1575.41,1058.15 1575.5,1055.5 Z"/></g>
<g><path style="opacity:1" fill="#680201" d="M 1487.5,1132.5 C 1487.9,1135.04 1487.23,1137.21 1485.5,1139C 1471.5,1146.67 1457.5,1154.33 1443.5,1162C 1440.5,1162.89 1437.84,1162.39 1435.5,1160.5C 1434.46,1158.26 1434.3,1155.93 1435,1153.5C 1449.26,1144.95 1463.76,1136.79 1478.5,1129C 1482.61,1127.66 1485.61,1128.83 1487.5,1132.5 Z"/></g>
<g><path style="opacity:1" fill="#680301" d="M 1404.5,1176.5 C 1404.66,1178.53 1404.5,1180.53 1404,1182.5C 1389.74,1190.71 1375.24,1198.55 1360.5,1206C 1358.07,1206.7 1355.74,1206.54 1353.5,1205.5C 1350.91,1202.33 1350.91,1199.16 1353.5,1196C 1367.99,1188.59 1382.33,1180.92 1396.5,1173C 1400.25,1171.78 1402.91,1172.94 1404.5,1176.5 Z"/></g>
<g><path style="opacity:1" fill="#ec964d" d="M 892.5,1195.5 C 906.553,1194.77 916.387,1200.77 922,1213.5C 925.061,1220.62 928.394,1227.62 932,1234.5C 933.244,1238.78 933.577,1243.11 933,1247.5C 931.545,1251.74 929.545,1255.74 927,1259.5C 922.481,1262.34 917.981,1265.17 913.5,1268C 875.013,1286.41 836.68,1305.08 798.5,1324C 785.347,1327.33 775.514,1323.17 769,1311.5C 765,1302.83 761,1294.17 757,1285.5C 755.76,1271.48 761.593,1261.65 774.5,1256C 813.811,1235.51 853.144,1215.35 892.5,1195.5 Z"/></g>
<g><path style="opacity:1" fill="#680302" d="M 1322.5,1222.5 C 1322.65,1223.55 1322.48,1224.55 1322,1225.5C 1308.07,1234.55 1293.57,1242.72 1278.5,1250C 1276.19,1250.5 1273.86,1250.66 1271.5,1250.5C 1269.57,1247.82 1269.07,1244.82 1270,1241.5C 1284.43,1232.7 1299.27,1224.53 1314.5,1217C 1318.61,1216.59 1321.27,1218.42 1322.5,1222.5 Z"/></g>
<g><path style="opacity:1" fill="#685146" d="M 513.5,1218.5 C 515.913,1219.68 516.913,1221.68 516.5,1224.5C 514.992,1222.82 513.992,1220.82 513.5,1218.5 Z"/></g>
<g><path style="opacity:1" fill="#680301" d="M 1239.5,1265.5 C 1239.66,1267.2 1239.49,1268.87 1239,1270.5C 1224.57,1279.3 1209.73,1287.47 1194.5,1295C 1192.4,1295.68 1190.4,1295.51 1188.5,1294.5C 1186.61,1292.16 1186.11,1289.5 1187,1286.5C 1200.93,1277.45 1215.43,1269.28 1230.5,1262C 1234.61,1260.66 1237.61,1261.83 1239.5,1265.5 Z"/></g>
<g><path style="opacity:1" fill="#680301" d="M 1156.5,1309.5 C 1156.66,1311.2 1156.49,1312.87 1156,1314.5C 1141.74,1323.05 1127.24,1331.21 1112.5,1339C 1110.87,1339.49 1109.2,1339.66 1107.5,1339.5C 1103.31,1337.09 1102.48,1333.75 1105,1329.5C 1119.26,1321.29 1133.76,1313.45 1148.5,1306C 1152.38,1304.78 1155.04,1305.95 1156.5,1309.5 Z"/></g>
<g><path style="opacity:1" fill="#690302" d="M 1074.5,1357.5 C 1073.64,1358.69 1072.64,1359.85 1071.5,1361C 1059.01,1367.41 1046.67,1374.08 1034.5,1381C 1031.46,1383.01 1028.13,1383.84 1024.5,1383.5C 1019.19,1379.8 1019.19,1375.96 1024.5,1372C 1038.33,1364.92 1051.99,1357.59 1065.5,1350C 1071.04,1349.37 1074.04,1351.87 1074.5,1357.5 Z"/></g>
<g><path style="opacity:1" fill="#680302" d="M 991.5,1402.5 C 976.359,1411.91 960.692,1420.58 944.5,1428.5C 938.905,1427.44 937.071,1424.11 939,1418.5C 953.261,1410.29 967.761,1402.45 982.5,1395C 989.003,1393.34 992.003,1395.84 991.5,1402.5 Z"/></g>
<g><path style="opacity:1" fill="#6a5045" d="M 1073.5,1414.5 C 1072.04,1415.74 1070.37,1416.74 1068.5,1417.5C 1068.5,1416.5 1068.5,1415.5 1068.5,1414.5C 1070.17,1414.5 1071.83,1414.5 1073.5,1414.5 Z"/></g>
<g><path style="opacity:1" fill="#680302" d="M 908.5,1447.5 C 893.626,1456.1 878.626,1464.44 863.5,1472.5C 857.18,1472.68 854.68,1469.68 856,1463.5C 870.257,1454.95 884.757,1446.79 899.5,1439C 906.304,1437.74 909.304,1440.58 908.5,1447.5 Z"/></g>
<g><path style="opacity:1" fill="#690402" d="M 817.5,1482.5 C 824.899,1482.38 827.399,1485.71 825,1492.5C 810.064,1501.87 793.898,1508.2 776.5,1511.5C 770.446,1509.57 769.112,1505.9 772.5,1500.5C 781.574,1497.98 790.574,1495.14 799.5,1492C 806.005,1489.58 812.005,1486.42 817.5,1482.5 Z"/></g>
<g><path style="opacity:1" fill="#6a0502" d="M 707.5,1483.5 C 712.323,1484.44 716.656,1486.61 720.5,1490C 725.167,1492.33 729.833,1494.67 734.5,1497C 737.865,1504.26 735.531,1507.6 727.5,1507C 720.044,1503.77 713.044,1499.77 706.5,1495C 703.681,1490.9 704.014,1487.07 707.5,1483.5 Z"/></g>
<g><path style="opacity:1" fill="#675147" d="M 659.5,1506.5 C 661.759,1507.34 662.759,1509.01 662.5,1511.5C 661.11,1510.1 660.11,1508.43 659.5,1506.5 Z"/></g>
<g><path style="opacity:1" fill="#604a44" d="M 730.5,1561.5 C 733.152,1561.41 735.485,1562.08 737.5,1563.5C 734.848,1563.59 732.515,1562.92 730.5,1561.5 Z"/></g>
</svg>
