<?xml version="1.0" encoding="UTF-8"?>
<!DOCTYPE svg PUBLIC "-//W3C//DTD SVG 1.1//EN" "http://www.w3.org/Graphics/SVG/1.1/DTD/svg11.dtd">
<svg xmlns="http://www.w3.org/2000/svg" version="1.1" width="1920px" height="1920px" style="shape-rendering:geometricPrecision; text-rendering:geometricPrecision; image-rendering:optimizeQuality; fill-rule:evenodd; clip-rule:evenodd" xmlns:xlink="http://www.w3.org/1999/xlink">
<g><path style="opacity:0.997" fill="#670503" d="M 1427.5,725.5 C 1428.05,727.552 1429.05,727.885 1430.5,726.5C 1444.9,722.578 1457.07,726.245 1467,737.5C 1489.21,784.595 1510.88,831.928 1532,879.5C 1534.21,890.864 1531.54,900.864 1524,909.5C 1520.64,912.038 1517.47,914.705 1514.5,917.5C 1534.33,961.828 1554.16,1006.16 1574,1050.5C 1589.85,1104.31 1573.02,1144.14 1523.5,1170C 1290.83,1296.67 1058.17,1423.33 825.5,1550C 791.85,1568.54 756.85,1571.54 720.5,1559C 694.846,1548.67 674.679,1531.84 660,1508.5C 565.473,1322.45 471.139,1136.11 377,949.5C 374.415,940.786 371.082,932.452 367,924.5C 366.333,911.833 366.333,899.167 367,886.5C 370.056,874.331 373.723,862.331 378,850.5C 381.922,843.658 385.588,836.658 389,829.5C 394.231,824.12 398.564,818.12 402,811.5C 402.617,810.551 402.451,809.718 401.5,809C 406.348,807.154 410.348,804.154 413.5,800C 417.941,797.228 422.608,794.894 427.5,793C 430.206,790.629 432.539,787.963 434.5,785C 491.751,755.876 548.751,726.543 605.5,697C 626.713,686.332 648.046,676.165 669.5,666.5C 670.779,667.715 671.779,667.382 672.5,665.5C 680.653,661.823 688.653,657.656 696.5,653C 716.279,645.632 735.612,637.298 754.5,628C 773.931,617.449 792.931,606.115 811.5,594C 849.256,575.187 887.59,557.521 926.5,541C 943.833,532.333 961.167,523.667 978.5,515C 1001.54,500.312 1025.54,487.312 1050.5,476C 1056.57,471.605 1062.9,467.605 1069.5,464C 1094.62,451.604 1119.62,438.938 1144.5,426C 1186.52,408.403 1223.35,415.903 1255,448.5C 1258,452.833 1261,457.167 1264,461.5C 1271,476.833 1278,492.167 1285,507.5C 1315.59,514.11 1338.26,531.11 1353,558.5C 1377.85,614.188 1402.68,669.855 1427.5,725.5 Z"/></g>
<g><path style="opacity:1" fill="#e57e23" d="M 530.5,886.5 C 549.881,886.136 568.548,882.303 586.5,875C 678.746,828.045 770.746,780.879 862.5,733.5C 869.284,733.357 875.951,734.19 882.5,736C 891.425,739.251 900.425,742.251 909.5,745C 914.001,748.538 918.167,752.371 922,756.5C 924.257,760.683 926.257,765.016 928,769.5C 929.259,786.122 929.925,802.789 930,819.5C 930.638,820.609 931.138,821.775 931.5,823C 927.249,841.59 925.082,860.423 925,879.5C 921.668,909.468 918.668,939.468 916,969.5C 906.214,986.953 892.714,1000.79 875.5,1011C 869.393,1016.01 867.56,1022.18 870,1029.5C 874.36,1034.36 879.194,1038.69 884.5,1042.5C 887.098,1044.93 889.098,1047.76 890.5,1051C 886.943,1057.29 882.776,1063.12 878,1068.5C 873.396,1066.23 869.729,1062.9 867,1058.5C 864.124,1050.45 861.124,1042.45 858,1034.5C 854.404,1031.1 850.071,1029.44 845,1029.5C 839.7,1030.16 834.534,1031.33 829.5,1033C 817.665,1040.08 805.998,1047.42 794.5,1055C 785.861,1063.44 780.861,1073.61 779.5,1085.5C 779.316,1094.48 783.649,1098.32 792.5,1097C 794.286,1096.22 795.786,1095.05 797,1093.5C 798.19,1089.62 798.857,1085.62 799,1081.5C 801.127,1077.41 803.627,1073.58 806.5,1070C 817.484,1062.26 828.984,1055.43 841,1049.5C 842.107,1049.59 843.107,1049.92 844,1050.5C 847.112,1064.28 854.278,1075.44 865.5,1084C 867.087,1084.86 868.754,1085.53 870.5,1086C 871.081,1086.89 871.415,1087.89 871.5,1089C 869.729,1093.71 868.396,1098.54 867.5,1103.5C 861.541,1100.9 855.541,1098.4 849.5,1096C 845.238,1091.31 842.738,1085.81 842,1079.5C 840,1076.83 837.333,1075.5 834,1075.5C 830.372,1076.23 826.872,1077.39 823.5,1079C 815.099,1087.28 807.265,1096.12 800,1105.5C 797.198,1113.1 793.865,1120.44 790,1127.5C 789.199,1134.89 789.533,1142.22 791,1149.5C 792.331,1152 794.164,1154 796.5,1155.5C 798.038,1158.05 799.704,1158.05 801.5,1155.5C 805.02,1154.82 807.52,1152.82 809,1149.5C 808.395,1130.34 815.062,1114.01 829,1100.5C 831.785,1105.62 835.618,1109.79 840.5,1113C 849.857,1117.34 859.524,1120.67 869.5,1123C 870.863,1127.74 872.529,1132.4 874.5,1137C 870.739,1140.48 866.239,1141.98 861,1141.5C 854.18,1142.29 848.68,1140.13 844.5,1135C 840.833,1133 837.167,1133 833.5,1135C 825.916,1143.34 821.416,1153.17 820,1164.5C 818.706,1176.08 819.706,1187.41 823,1198.5C 827.611,1203.71 831.777,1209.21 835.5,1215C 837.996,1216.08 840.33,1217.41 842.5,1219C 852,1220.17 856.167,1216 855,1206.5C 850.565,1201.31 845.899,1196.31 841,1191.5C 837.701,1180.53 837.701,1169.53 841,1158.5C 841.333,1158.17 841.667,1157.83 842,1157.5C 857.839,1162.15 873.339,1161.15 888.5,1154.5C 889.167,1154.83 889.833,1155.17 890.5,1155.5C 881.534,1173.16 879.7,1191.5 885,1210.5C 886.252,1212 887.252,1213.67 888,1215.5C 892.5,1218.67 896.333,1222.5 899.5,1227C 906.415,1232.12 914.081,1235.62 922.5,1237.5C 923.328,1242.13 923.828,1246.8 924,1251.5C 927.333,1255.5 930.667,1255.5 934,1251.5C 934.499,1247.18 934.666,1242.85 934.5,1238.5C 937.167,1238.5 939.833,1238.5 942.5,1238.5C 942.334,1243.18 942.501,1247.85 943,1252.5C 946.333,1256.5 949.667,1256.5 953,1252.5C 953.17,1246.8 953.67,1241.14 954.5,1235.5C 983.226,1222.95 994.726,1201.28 989,1170.5C 986.227,1165.4 983.06,1160.56 979.5,1156C 988.167,1155.67 996.833,1155.33 1005.5,1155C 1012.23,1152.13 1019.07,1149.63 1026,1147.5C 1027.04,1148.62 1027.71,1149.96 1028,1151.5C 1028.63,1163.51 1028.96,1175.51 1029,1187.5C 1027.67,1190.17 1026.33,1192.83 1025,1195.5C 1018.17,1197.83 1015.5,1202.5 1017,1209.5C 1019.63,1214.73 1023.8,1216.56 1029.5,1215C 1039.78,1210.39 1045.95,1202.56 1048,1191.5C 1048.12,1177.5 1047.79,1163.5 1047,1149.5C 1045.83,1142 1042.66,1135.5 1037.5,1130C 1034.39,1127.56 1030.89,1126.06 1027,1125.5C 1025.03,1125.54 1023.2,1126.04 1021.5,1127C 1020.12,1128.71 1018.46,1130.05 1016.5,1131C 1011.25,1131.92 1006.25,1133.58 1001.5,1136C 997.129,1136.83 992.795,1136.66 988.5,1135.5C 991.115,1129.27 993.448,1122.94 995.5,1116.5C 1005.19,1114.44 1014.52,1111.27 1023.5,1107C 1025.91,1104.72 1028.41,1102.55 1031,1100.5C 1032.14,1097.42 1033.47,1094.42 1035,1091.5C 1037.04,1093.21 1038.71,1095.21 1040,1097.5C 1045.52,1107.08 1050.86,1116.74 1056,1126.5C 1057.59,1133.14 1058.93,1139.81 1060,1146.5C 1065.33,1151.83 1070.67,1151.83 1076,1146.5C 1078.28,1133.72 1076.11,1121.72 1069.5,1110.5C 1068.39,1107.95 1067.56,1105.28 1067,1102.5C 1066.58,1101.24 1065.75,1100.58 1064.5,1100.5C 1059.18,1091.88 1053.35,1083.55 1047,1075.5C 1038.66,1066.55 1029.99,1066.21 1021,1074.5C 1019.79,1080.09 1017.62,1085.26 1014.5,1090C 1008.09,1093.08 1001.42,1095.25 994.5,1096.5C 993.505,1090.85 991.672,1085.52 989,1080.5C 988.647,1076.01 990.814,1073.18 995.5,1072C 1006.22,1063.44 1014.56,1052.94 1020.5,1040.5C 1029.99,1045.08 1039.32,1049.91 1048.5,1055C 1054.63,1060.75 1059.13,1067.59 1062,1075.5C 1067.33,1080.83 1072.67,1080.83 1078,1075.5C 1080.03,1070.71 1079.7,1066.04 1077,1061.5C 1071.95,1052.45 1065.45,1044.62 1057.5,1038C 1049.88,1034.52 1042.54,1030.52 1035.5,1026C 1029.46,1023.4 1023.3,1021.23 1017,1019.5C 1005.89,1019.61 1000.56,1025.28 1001,1036.5C 994.903,1047.05 986.57,1055.39 976,1061.5C 971.835,1057 967.335,1052.83 962.5,1049C 969.339,1040.83 976.172,1032.66 983,1024.5C 984.545,1019.95 984.879,1015.29 984,1010.5C 983.215,1008.71 982.049,1007.21 980.5,1006C 973.435,1002.14 966.102,998.802 958.5,996C 955.947,993.575 953.28,991.408 950.5,989.5C 947.474,986.053 944.474,982.719 941.5,979.5C 940.18,974.96 939.347,970.294 939,965.5C 937.367,963.547 936.201,961.38 935.5,959C 938.085,933.148 940.918,907.315 944,881.5C 944.356,861.276 946.689,841.276 951,821.5C 952.878,807.482 952.878,793.482 951,779.5C 949.066,775.241 946.732,771.241 944,767.5C 942.257,764.043 941.257,760.377 941,756.5C 938.046,752.925 935.879,748.925 934.5,744.5C 946.78,738.36 959.114,732.193 971.5,726C 975.747,721.837 975.414,718.171 970.5,715C 969.167,714.333 967.833,714.333 966.5,715C 952.807,721.847 939.14,728.68 925.5,735.5C 918.615,731.248 911.615,727.081 904.5,723C 899.757,722.365 895.424,720.865 891.5,718.5C 1007.27,659.285 1122.93,600.119 1238.5,541C 1250.64,535.906 1262.64,530.74 1274.5,525.5C 1303,528.174 1323.83,542.174 1337,567.5C 1361.84,622.313 1386.5,677.313 1411,732.5C 1411.78,733.944 1411.61,735.277 1410.5,736.5C 1403.64,740.931 1396.31,744.264 1388.5,746.5C 1382.78,733.529 1376.95,720.529 1371,707.5C 1363.85,703.405 1360.19,705.405 1360,713.5C 1366.69,726.973 1372.52,740.473 1377.5,754C 1330.34,778.078 1283.34,802.411 1236.5,827C 1201.56,850.376 1185.4,883.209 1188,925.5C 1195.67,974.496 1223.5,1005 1271.5,1017C 1293.44,1021.05 1314.44,1018.38 1334.5,1009C 1388.78,980.946 1442.94,952.779 1497,924.5C 1517.03,968.638 1537.03,1012.64 1557,1056.5C 1570.03,1101.94 1555.2,1134.77 1512.5,1155C 1279.93,1281.5 1047.27,1408.17 814.5,1535C 786.082,1549.94 756.749,1552.11 726.5,1541.5C 714.445,1532.28 704.278,1521.28 696,1508.5C 601.488,1322.48 507.155,1136.14 413,949.5C 408,934.169 404.5,918.502 402.5,902.5C 404.539,892.265 405.706,881.932 406,871.5C 407.721,863.335 410.055,855.335 413,847.5C 416.791,840.909 419.791,833.909 422,826.5C 424.843,821.477 427.677,816.477 430.5,811.5C 432.933,807.804 435.933,804.637 439.5,802C 462.81,791.338 486.144,780.672 509.5,770C 514.328,766.419 519.328,763.085 524.5,760C 540.673,753.58 556.007,745.58 570.5,736C 589.939,728.111 608.939,719.444 627.5,710C 635.079,705.246 643.079,701.246 651.5,698C 656.867,694.322 662.201,690.655 667.5,687C 673.753,685.203 679.753,682.869 685.5,680C 702.158,671.172 718.824,662.672 735.5,654.5C 738.032,653.404 740.365,652.071 742.5,650.5C 748.851,646.992 755.518,644.158 762.5,642C 763.981,641.02 765.315,639.853 766.5,638.5C 779.047,633.149 791.381,627.316 803.5,621C 811.11,615.361 819.443,611.028 828.5,608C 830.833,606.333 833.167,604.667 835.5,603C 849.636,596.766 863.302,589.766 876.5,582C 889.058,577.054 901.058,571.054 912.5,564C 926.938,557.627 941.605,551.627 956.5,546C 958.972,544.907 960.972,543.24 962.5,541C 980.832,533.553 998.165,524.22 1014.5,513C 1034.02,504.574 1052.35,494.074 1069.5,481.5C 1088.21,473.647 1106.21,464.48 1123.5,454C 1135.7,449.566 1147.7,444.566 1159.5,439C 1190.81,429.264 1217.81,436.264 1240.5,460C 1233.94,458.04 1227.28,456.04 1220.5,454C 1203.69,450.486 1187.02,451.152 1170.5,456C 1123.45,479.694 1076.45,503.027 1029.5,526C 1014.2,534.986 998.866,543.986 983.5,553C 950.953,567.94 918.953,583.94 887.5,601C 879.727,604.053 872.06,607.386 864.5,611C 830.331,631.256 795.331,650.256 759.5,668C 734.355,680.242 709.022,691.908 683.5,703C 679.828,705.838 675.828,708.171 671.5,710C 637.365,724.729 603.365,740.062 569.5,756C 545.224,772.483 519.891,787.483 493.5,801C 482.167,808 470.833,815 459.5,822C 448.199,826.299 439.699,833.799 434,844.5C 426.581,858.988 429.081,871.488 441.5,882C 450.009,887.585 459.342,890.918 469.5,892C 490.148,893.544 510.481,891.71 530.5,886.5 Z"/></g>
<g><path style="opacity:1" fill="#bf5718" d="M 846.5,710.5 C 839.897,709.058 834.564,710.891 830.5,716C 826.812,716.195 824.478,718.029 823.5,721.5C 762.831,752.667 701.831,783.167 640.5,813C 632.951,817.878 624.951,821.878 616.5,825C 608.493,830.678 599.827,835.011 590.5,838C 578.068,845.434 565.401,852.434 552.5,859C 526.212,871.487 498.546,876.487 469.5,874C 443.602,868.857 440.602,857.524 460.5,840C 465.454,836.715 470.12,833.048 474.5,829C 489.787,821.079 505.121,813.079 520.5,805C 534.833,799.333 549.167,793.667 563.5,788C 570.635,783.93 577.635,779.597 584.5,775C 594.298,771.182 603.964,767.182 613.5,763C 619.833,759.333 626.167,755.667 632.5,752C 650.442,744.712 667.442,735.712 683.5,725C 709.777,713.86 735.777,702.193 761.5,690C 797.313,669.093 833.979,649.76 871.5,632C 894.601,617.617 918.934,605.617 944.5,596C 952.5,592 960.5,588 968.5,584C 970.647,581.763 972.98,579.763 975.5,578C 998.19,564.432 1021.86,552.765 1046.5,543C 1061.55,534.475 1076.88,526.475 1092.5,519C 1099.9,512.941 1108.24,508.607 1117.5,506C 1139.52,492.32 1163.19,482.32 1188.5,476C 1199.16,474.889 1209.83,474.222 1220.5,474C 1229.15,476.887 1237.49,480.553 1245.5,485C 1250.24,488.614 1254.4,492.781 1258,497.5C 1260.55,500.86 1262.38,504.526 1263.5,508.5C 1255.04,509.198 1246.7,510.698 1238.5,513C 1107.75,578.541 977.084,644.375 846.5,710.5 Z"/></g>
<g><path style="opacity:1" fill="#690402" d="M 1265.5,565.5 C 1282.56,563.74 1297.22,568.74 1309.5,580.5C 1312.2,583.903 1311.87,587.07 1308.5,590C 1306.17,590.667 1303.83,590.667 1301.5,590C 1289.9,578.745 1276.24,575.079 1260.5,579C 1254.73,576.252 1254.06,572.586 1258.5,568C 1260.93,567.098 1263.26,566.264 1265.5,565.5 Z"/></g>
<g><path style="opacity:1" fill="#690402" d="M 1216.5,587.5 C 1225.82,587.655 1227.82,591.488 1222.5,599C 1208.5,606 1194.5,613 1180.5,620C 1175.35,621.677 1172.35,619.844 1171.5,614.5C 1171.76,612.813 1172.43,611.313 1173.5,610C 1188.18,602.996 1202.51,595.496 1216.5,587.5 Z"/></g>
<g><path style="opacity:1" fill="#6a0502" d="M 1325.5,619.5 C 1328.78,619.269 1331.28,620.603 1333,623.5C 1340.06,638.287 1346.56,653.287 1352.5,668.5C 1351.7,673.79 1348.7,675.623 1343.5,674C 1342.67,673.167 1341.83,672.333 1341,671.5C 1334.53,657.082 1327.86,642.748 1321,628.5C 1320.05,624.279 1321.55,621.279 1325.5,619.5 Z"/></g>
<g><path style="opacity:1" fill="#f2c6a2" d="M 1274.5,525.5 C 1262.64,530.74 1250.64,535.906 1238.5,541C 1122.93,600.119 1007.27,659.285 891.5,718.5C 887.329,717.738 883.329,716.738 879.5,715.5C 998.47,655.015 1117.47,594.515 1236.5,534C 1248.39,527.694 1261.06,524.861 1274.5,525.5 Z"/></g>
<g><path style="opacity:1" fill="#690302" d="M 1134.5,629.5 C 1142.15,630.96 1143.82,634.793 1139.5,641C 1124.83,648.333 1110.17,655.667 1095.5,663C 1089.15,662.954 1086.98,659.788 1089,653.5C 1104.18,645.329 1119.35,637.329 1134.5,629.5 Z"/></g>
<g><path style="opacity:1" fill="#574422" d="M 742.5,650.5 C 740.365,652.071 738.032,653.404 735.5,654.5C 736.665,651.41 738.998,650.076 742.5,650.5 Z"/></g>
<g><path style="opacity:0.876" fill="#4a562d" d="M 672.5,665.5 C 671.779,667.382 670.779,667.715 669.5,666.5C 670.391,665.89 671.391,665.557 672.5,665.5 Z"/></g>
<g><path style="opacity:1" fill="#690302" d="M 1049.5,672.5 C 1057.74,672.228 1060.08,675.728 1056.5,683C 1041.98,690.093 1027.65,697.427 1013.5,705C 1006.67,706.167 1003.83,703.333 1005,696.5C 1005.83,695.667 1006.67,694.833 1007.5,694C 1021.72,687.059 1035.72,679.892 1049.5,672.5 Z"/></g>
<g><path style="opacity:1" fill="#020000" d="M 846.5,710.5 C 851.134,712.091 855.967,713.424 861,714.5C 862.107,714.415 863.107,714.081 864,713.5C 869.088,714.46 874.254,715.127 879.5,715.5C 883.329,716.738 887.329,717.738 891.5,718.5C 895.424,720.865 899.757,722.365 904.5,723C 911.615,727.081 918.615,731.248 925.5,735.5C 928.167,738.833 931.167,741.833 934.5,744.5C 935.879,748.925 938.046,752.925 941,756.5C 941.257,760.377 942.257,764.043 944,767.5C 946.732,771.241 949.066,775.241 951,779.5C 952.878,793.482 952.878,807.482 951,821.5C 946.689,841.276 944.356,861.276 944,881.5C 940.918,907.315 938.085,933.148 935.5,959C 936.201,961.38 937.367,963.547 939,965.5C 939.347,970.294 940.18,974.96 941.5,979.5C 943.133,984.122 946.133,987.455 950.5,989.5C 953.28,991.408 955.947,993.575 958.5,996C 966.102,998.802 973.435,1002.14 980.5,1006C 982.049,1007.21 983.215,1008.71 984,1010.5C 984.879,1015.29 984.545,1019.95 983,1024.5C 976.172,1032.66 969.339,1040.83 962.5,1049C 967.335,1052.83 971.835,1057 976,1061.5C 986.57,1055.39 994.903,1047.05 1001,1036.5C 1000.56,1025.28 1005.89,1019.61 1017,1019.5C 1023.3,1021.23 1029.46,1023.4 1035.5,1026C 1042.54,1030.52 1049.88,1034.52 1057.5,1038C 1065.45,1044.62 1071.95,1052.45 1077,1061.5C 1079.7,1066.04 1080.03,1070.71 1078,1075.5C 1072.67,1080.83 1067.33,1080.83 1062,1075.5C 1059.13,1067.59 1054.63,1060.75 1048.5,1055C 1039.32,1049.91 1029.99,1045.08 1020.5,1040.5C 1014.56,1052.94 1006.22,1063.44 995.5,1072C 990.814,1073.18 988.647,1076.01 989,1080.5C 991.672,1085.52 993.505,1090.85 994.5,1096.5C 1001.42,1095.25 1008.09,1093.08 1014.5,1090C 1017.62,1085.26 1019.79,1080.09 1021,1074.5C 1029.99,1066.21 1038.66,1066.55 1047,1075.5C 1053.35,1083.55 1059.18,1091.88 1064.5,1100.5C 1065.12,1104.42 1066.79,1107.75 1069.5,1110.5C 1076.11,1121.72 1078.28,1133.72 1076,1146.5C 1070.67,1151.83 1065.33,1151.83 1060,1146.5C 1058.93,1139.81 1057.59,1133.14 1056,1126.5C 1050.86,1116.74 1045.52,1107.08 1040,1097.5C 1038.71,1095.21 1037.04,1093.21 1035,1091.5C 1033.47,1094.42 1032.14,1097.42 1031,1100.5C 1028.41,1102.55 1025.91,1104.72 1023.5,1107C 1014.52,1111.27 1005.19,1114.44 995.5,1116.5C 993.448,1122.94 991.115,1129.27 988.5,1135.5C 992.795,1136.66 997.129,1136.83 1001.5,1136C 1006.25,1133.58 1011.25,1131.92 1016.5,1131C 1018.46,1130.05 1020.12,1128.71 1021.5,1127C 1023.2,1126.04 1025.03,1125.54 1027,1125.5C 1030.89,1126.06 1034.39,1127.56 1037.5,1130C 1042.66,1135.5 1045.83,1142 1047,1149.5C 1047.79,1163.5 1048.12,1177.5 1048,1191.5C 1045.95,1202.56 1039.78,1210.39 1029.5,1215C 1023.8,1216.56 1019.63,1214.73 1017,1209.5C 1015.5,1202.5 1018.17,1197.83 1025,1195.5C 1026.33,1192.83 1027.67,1190.17 1029,1187.5C 1028.96,1175.51 1028.63,1163.51 1028,1151.5C 1027.71,1149.96 1027.04,1148.62 1026,1147.5C 1019.07,1149.63 1012.23,1152.13 1005.5,1155C 996.833,1155.33 988.167,1155.67 979.5,1156C 983.06,1160.56 986.227,1165.4 989,1170.5C 994.726,1201.28 983.226,1222.95 954.5,1235.5C 953.67,1241.14 953.17,1246.8 953,1252.5C 949.667,1256.5 946.333,1256.5 943,1252.5C 942.501,1247.85 942.334,1243.18 942.5,1238.5C 939.833,1238.5 937.167,1238.5 934.5,1238.5C 934.666,1242.85 934.499,1247.18 934,1251.5C 930.667,1255.5 927.333,1255.5 924,1251.5C 923.828,1246.8 923.328,1242.13 922.5,1237.5C 914.081,1235.62 906.415,1232.12 899.5,1227C 896.333,1222.5 892.5,1218.67 888,1215.5C 887.252,1213.67 886.252,1212 885,1210.5C 879.7,1191.5 881.534,1173.16 890.5,1155.5C 889.833,1155.17 889.167,1154.83 888.5,1154.5C 873.339,1161.15 857.839,1162.15 842,1157.5C 841.667,1157.83 841.333,1158.17 841,1158.5C 837.701,1169.53 837.701,1180.53 841,1191.5C 845.899,1196.31 850.565,1201.31 855,1206.5C 856.167,1216 852,1220.17 842.5,1219C 840.33,1217.41 837.996,1216.08 835.5,1215C 831.777,1209.21 827.611,1203.71 823,1198.5C 819.706,1187.41 818.706,1176.08 820,1164.5C 821.416,1153.17 825.916,1143.34 833.5,1135C 837.167,1133 840.833,1133 844.5,1135C 848.68,1140.13 854.18,1142.29 861,1141.5C 866.239,1141.98 870.739,1140.48 874.5,1137C 872.529,1132.4 870.863,1127.74 869.5,1123C 859.524,1120.67 849.857,1117.34 840.5,1113C 835.618,1109.79 831.785,1105.62 829,1100.5C 815.062,1114.01 808.395,1130.34 809,1149.5C 807.52,1152.82 805.02,1154.82 801.5,1155.5C 799.833,1155.5 798.167,1155.5 796.5,1155.5C 794.164,1154 792.331,1152 791,1149.5C 789.533,1142.22 789.199,1134.89 790,1127.5C 793.865,1120.44 797.198,1113.1 800,1105.5C 807.265,1096.12 815.099,1087.28 823.5,1079C 826.872,1077.39 830.372,1076.23 834,1075.5C 837.333,1075.5 840,1076.83 842,1079.5C 842.738,1085.81 845.238,1091.31 849.5,1096C 855.541,1098.4 861.541,1100.9 867.5,1103.5C 868.396,1098.54 869.729,1093.71 871.5,1089C 871.415,1087.89 871.081,1086.89 870.5,1086C 868.754,1085.53 867.087,1084.86 865.5,1084C 854.278,1075.44 847.112,1064.28 844,1050.5C 843.107,1049.92 842.107,1049.59 841,1049.5C 828.984,1055.43 817.484,1062.26 806.5,1070C 803.627,1073.58 801.127,1077.41 799,1081.5C 798.857,1085.62 798.19,1089.62 797,1093.5C 795.786,1095.05 794.286,1096.22 792.5,1097C 783.649,1098.32 779.316,1094.48 779.5,1085.5C 780.861,1073.61 785.861,1063.44 794.5,1055C 805.998,1047.42 817.665,1040.08 829.5,1033C 834.534,1031.33 839.7,1030.16 845,1029.5C 850.071,1029.44 854.404,1031.1 858,1034.5C 861.124,1042.45 864.124,1050.45 867,1058.5C 869.729,1062.9 873.396,1066.23 878,1068.5C 882.776,1063.12 886.943,1057.29 890.5,1051C 889.098,1047.76 887.098,1044.93 884.5,1042.5C 879.194,1038.69 874.36,1034.36 870,1029.5C 867.56,1022.18 869.393,1016.01 875.5,1011C 892.714,1000.79 906.214,986.953 916,969.5C 918.668,939.468 921.668,909.468 925,879.5C 925.082,860.423 927.249,841.59 931.5,823C 931.138,821.775 930.638,820.609 930,819.5C 929.925,802.789 929.259,786.122 928,769.5C 926.257,765.016 924.257,760.683 922,756.5C 918.167,752.371 914.001,748.538 909.5,745C 900.425,742.251 891.425,739.251 882.5,736C 875.951,734.19 869.284,733.357 862.5,733.5C 856.968,732.747 851.301,732.08 845.5,731.5C 839.226,729.912 832.893,728.412 826.5,727C 824.329,725.826 823.329,723.993 823.5,721.5C 824.478,718.029 826.812,716.195 830.5,716C 834.564,710.891 839.897,709.058 846.5,710.5 Z"/></g>
<g><path style="opacity:1" fill="#680302" d="M 934.5,744.5 C 931.167,741.833 928.167,738.833 925.5,735.5C 939.14,728.68 952.807,721.847 966.5,715C 967.833,714.333 969.167,714.333 970.5,715C 975.414,718.171 975.747,721.837 971.5,726C 959.114,732.193 946.78,738.36 934.5,744.5 Z"/></g>
<g><path style="opacity:1" fill="#468d8e" d="M 1427.5,725.5 C 1428.39,726.11 1429.39,726.443 1430.5,726.5C 1429.05,727.885 1428.05,727.552 1427.5,725.5 Z"/></g>
<g><path style="opacity:1" fill="#f3c6a2" d="M 845.5,731.5 C 851.301,732.08 856.968,732.747 862.5,733.5C 770.746,780.879 678.746,828.045 586.5,875C 568.548,882.303 549.881,886.136 530.5,886.5C 559.091,877.375 586.425,865.209 612.5,850C 690.341,811.079 768.008,771.579 845.5,731.5 Z"/></g>
<g><path style="opacity:1" fill="#f3c7a3" d="M 1450.5,747.5 C 1386.33,780.082 1322.33,812.916 1258.5,846C 1219.32,872.206 1204.99,908.373 1215.5,954.5C 1199.73,921.842 1202.56,890.842 1224,861.5C 1231.33,852.83 1239.83,845.663 1249.5,840C 1311.5,808 1373.5,776 1435.5,744C 1439.17,743.333 1442.83,743.333 1446.5,744C 1448.32,744.66 1449.66,745.827 1450.5,747.5 Z"/></g>
<g><path style="opacity:1" fill="#e67d23" d="M 1450.5,747.5 C 1453.05,749.578 1454.88,752.244 1456,755.5C 1473.46,793.414 1490.63,831.414 1507.5,869.5C 1504.69,874.476 1500.69,878.309 1495.5,881C 1436.9,911.303 1378.23,941.636 1319.5,972C 1285.91,987.616 1253.58,985.45 1222.5,965.5C 1219.42,962.35 1217.09,958.683 1215.5,954.5C 1204.99,908.373 1219.32,872.206 1258.5,846C 1322.33,812.916 1386.33,780.082 1450.5,747.5 Z"/></g>
<g><path style="opacity:1" fill="#690402" d="M 881.5,757.5 C 890.487,756.665 892.82,760.165 888.5,768C 874.323,775.589 859.99,782.922 845.5,790C 838.676,790.494 836.176,787.328 838,780.5C 852.482,772.677 866.982,765.01 881.5,757.5 Z"/></g>
<g><path style="opacity:1" fill="#690402" d="M 798.5,799.5 C 803.42,798.784 806.42,800.784 807.5,805.5C 807.152,807.697 806.152,809.53 804.5,811C 790.5,818 776.5,825 762.5,832C 754.193,832.704 751.859,829.371 755.5,822C 769.863,814.486 784.197,806.986 798.5,799.5 Z"/></g>
<g><path style="opacity:1" fill="#f4c7a4" d="M 430.5,811.5 C 427.677,816.477 424.843,821.477 422,826.5C 419.791,833.909 416.791,840.909 413,847.5C 410.055,855.335 407.721,863.335 406,871.5C 405.706,881.932 404.539,892.265 402.5,902.5C 404.5,918.502 408,934.169 413,949.5C 507.155,1136.14 601.488,1322.48 696,1508.5C 704.278,1521.28 714.445,1532.28 726.5,1541.5C 705.071,1533.03 688.238,1519.03 676,1499.5C 581.744,1313.99 487.744,1128.32 394,942.5C 380.471,906.393 384.137,872.06 405,839.5C 409.333,833.833 413.667,828.167 418,822.5C 421.742,818.253 425.908,814.586 430.5,811.5 Z"/></g>
<g><path style="opacity:1" fill="#690402" d="M 715.5,841.5 C 723.579,842.09 725.579,845.924 721.5,853C 706.833,860.333 692.167,867.667 677.5,875C 672.673,875.917 670.006,873.917 669.5,869C 669.643,866.849 670.643,865.182 672.5,864C 687.241,856.966 701.575,849.466 715.5,841.5 Z"/></g>
<g><path style="opacity:1" fill="#660101" d="M 1316.5,883.5 C 1331.89,899.011 1334.73,916.678 1325,936.5C 1311.73,954.867 1294.23,960.534 1272.5,953.5C 1254.11,943.715 1245.94,928.381 1248,907.5C 1254.91,883.632 1270.74,872.465 1295.5,874C 1303.28,875.559 1310.28,878.725 1316.5,883.5 Z"/></g>
<g><path style="opacity:1" fill="#bf5718" d="M 1507.5,869.5 C 1513.25,876.642 1515.08,884.642 1513,893.5C 1511.95,895.09 1510.79,896.59 1509.5,898C 1445.96,930.937 1382.29,963.604 1318.5,996C 1289.65,1004.78 1262.98,1000.45 1238.5,983C 1232.59,977.596 1227.26,971.763 1222.5,965.5C 1253.58,985.45 1285.91,987.616 1319.5,972C 1378.23,941.636 1436.9,911.303 1495.5,881C 1500.69,878.309 1504.69,874.476 1507.5,869.5 Z"/></g>
<g><path style="opacity:1" fill="#680302" d="M 630.5,884.5 C 637.99,883.302 640.823,886.302 639,893.5C 624.562,901.97 609.729,909.804 594.5,917C 589.248,918.856 586.581,917.022 586.5,911.5C 586.406,909.088 587.406,907.255 589.5,906C 603.575,899.299 617.242,892.132 630.5,884.5 Z"/></g>
<g><path style="opacity:1" fill="#812f2e" d="M 1278.5,886.5 C 1286.44,886.682 1289.27,890.682 1287,898.5C 1283.17,909.358 1275.67,915.191 1264.5,916C 1260.28,912.178 1259.45,907.678 1262,902.5C 1266.07,895.592 1271.57,890.258 1278.5,886.5 Z"/></g>
<g><path style="opacity:1" fill="#f2c5a1" d="M 1316.5,883.5 C 1339.08,898.899 1343.91,918.899 1331,943.5C 1319.02,958.709 1303.52,964.209 1284.5,960C 1279.99,958.582 1275.99,956.415 1272.5,953.5C 1294.23,960.534 1311.73,954.867 1325,936.5C 1334.73,916.678 1331.89,899.011 1316.5,883.5 Z"/></g>
<g><path style="opacity:1" fill="#6a0402" d="M 547.5,926.5 C 555.143,926.143 557.643,929.476 555,936.5C 538.402,944.924 520.902,950.09 502.5,952C 498.253,947.837 498.586,944.171 503.5,941C 518.771,937.631 533.438,932.798 547.5,926.5 Z"/></g>
<g><path style="opacity:1" fill="#690402" d="M 433.5,935.5 C 439.446,936.122 445.113,937.956 450.5,941C 454.612,941.622 458.612,942.622 462.5,944C 464.478,946.497 464.978,949.331 464,952.5C 462.649,954.01 460.982,955.01 459,955.5C 448.997,954.169 439.997,950.502 432,944.5C 431.068,941.177 431.568,938.177 433.5,935.5 Z"/></g>
<g><path style="opacity:1" fill="#6b0603" d="M 1478.5,961.5 C 1482.01,960.994 1485.17,961.66 1488,963.5C 1494.94,977.713 1501.61,992.047 1508,1006.5C 1509.32,1015.16 1505.99,1017.82 1498,1014.5C 1490.73,999.62 1483.73,984.62 1477,969.5C 1476.55,966.667 1477.05,964.001 1478.5,961.5 Z"/></g>
<g><path style="opacity:1" fill="#93435a" d="M 941.5,979.5 C 944.474,982.719 947.474,986.053 950.5,989.5C 946.133,987.455 943.133,984.122 941.5,979.5 Z"/></g>
<g><path style="opacity:1" fill="#e37d22" d="M 934.5,1002.5 C 939.792,1005.49 944.792,1008.99 949.5,1013C 953.838,1014.5 957.838,1016.5 961.5,1019C 960.722,1021.39 959.555,1023.56 958,1025.5C 953.471,1030.69 948.971,1035.86 944.5,1041C 940.537,1042.24 937.703,1041.07 936,1037.5C 935.485,1025.83 934.985,1014.16 934.5,1002.5 Z"/></g>
<g><path style="opacity:1" fill="#e37d22" d="M 913.5,1003.5 C 914.8,1005.22 915.467,1007.39 915.5,1010C 916.008,1020.74 916.675,1031.4 917.5,1042C 915.153,1042.44 912.819,1042.94 910.5,1043.5C 908.971,1043.47 907.804,1042.8 907,1041.5C 903.233,1034.4 898.066,1028.57 891.5,1024C 894.484,1021.17 897.817,1018.84 901.5,1017C 905.416,1012.26 909.416,1007.76 913.5,1003.5 Z"/></g>
<g><path style="opacity:1" fill="#6a0502" d="M 1516.5,1047.5 C 1520.49,1046.62 1523.32,1047.95 1525,1051.5C 1527.15,1068.44 1525.15,1084.77 1519,1100.5C 1515.82,1106.25 1511.82,1106.92 1507,1102.5C 1506.83,1101.33 1506.67,1100.17 1506.5,1099C 1512.52,1083.7 1514.69,1067.86 1513,1051.5C 1513.69,1049.65 1514.86,1048.32 1516.5,1047.5 Z"/></g>
<g><path style="opacity:1" fill="#e57e23" d="M 919.5,1060.5 C 925.842,1060.33 932.175,1060.5 938.5,1061C 941.884,1063.94 945.884,1065.27 950.5,1065C 957.614,1068.45 963.114,1073.61 967,1080.5C 967.697,1086.99 969.031,1093.32 971,1099.5C 972.368,1108.13 972.702,1116.8 972,1125.5C 968.23,1131.71 965.563,1138.38 964,1145.5C 958.659,1143.7 953.493,1141.54 948.5,1139C 939.825,1138.63 931.158,1138.13 922.5,1137.5C 914.297,1137.11 907.297,1139.77 901.5,1145.5C 902.158,1137.81 898.991,1132.47 892,1129.5C 886.081,1114.86 886.081,1100.19 892,1085.5C 895.024,1077.95 899.19,1071.12 904.5,1065C 909.632,1063.56 914.632,1062.06 919.5,1060.5 Z"/></g>
<g><path style="opacity:1" fill="#b55b49" d="M 1064.5,1100.5 C 1065.75,1100.58 1066.58,1101.24 1067,1102.5C 1067.56,1105.28 1068.39,1107.95 1069.5,1110.5C 1066.79,1107.75 1065.12,1104.42 1064.5,1100.5 Z"/></g>
<g><path style="opacity:1" fill="#690402" d="M 1478.5,1128.5 C 1485.66,1127.5 1488.5,1130.5 1487,1137.5C 1486.17,1138.33 1485.33,1139.17 1484.5,1140C 1471.83,1147 1459.17,1154 1446.5,1161C 1438.24,1164.57 1434.41,1162.07 1435,1153.5C 1435.83,1152.67 1436.67,1151.83 1437.5,1151C 1451.55,1143.98 1465.22,1136.48 1478.5,1128.5 Z"/></g>
<g><path style="opacity:1" fill="#9d4a5f" d="M 796.5,1155.5 C 798.167,1155.5 799.833,1155.5 801.5,1155.5C 799.704,1158.05 798.038,1158.05 796.5,1155.5 Z"/></g>
<g><path style="opacity:1" fill="#e17c23" d="M 928.5,1157.5 C 941.308,1157.82 953.308,1160.99 964.5,1167C 976.103,1184.81 973.436,1200.14 956.5,1213C 941.323,1221.89 926.323,1221.55 911.5,1212C 908.646,1208.15 905.479,1204.65 902,1201.5C 900.338,1192.78 900.671,1184.11 903,1175.5C 904.955,1174.55 906.622,1173.21 908,1171.5C 910.766,1168.57 912.933,1165.23 914.5,1161.5C 919.249,1160.03 923.916,1158.69 928.5,1157.5 Z"/></g>
<g><path style="opacity:1" fill="#050201" d="M 918.5,1163.5 C 921.564,1163.14 924.231,1163.98 926.5,1166C 928.549,1168.59 930.715,1171.09 933,1173.5C 934.666,1180.16 932.166,1183 925.5,1182C 921.964,1178.8 918.797,1175.3 916,1171.5C 915.018,1168.23 915.851,1165.56 918.5,1163.5 Z"/></g>
<g><path style="opacity:1" fill="#070301" d="M 944.5,1163.5 C 952.526,1163.41 954.693,1167.08 951,1174.5C 948.167,1176.67 945.667,1179.17 943.5,1182C 937.333,1183.17 934.833,1180.67 936,1174.5C 939.049,1170.96 941.882,1167.29 944.5,1163.5 Z"/></g>
<g><path style="opacity:1" fill="#6a0602" d="M 1396.5,1172.5 C 1402.98,1172.16 1405.82,1175.16 1405,1181.5C 1390.34,1190.8 1375.18,1199.3 1359.5,1207C 1351.97,1206.45 1349.97,1202.78 1353.5,1196C 1368.22,1188.65 1382.55,1180.81 1396.5,1172.5 Z"/></g>
<g><path style="opacity:1" fill="#070301" d="M 954.5,1183.5 C 963.228,1183.06 966.728,1187.06 965,1195.5C 959.278,1202.02 953.611,1202.02 948,1195.5C 946.907,1189.54 949.073,1185.54 954.5,1183.5 Z"/></g>
<g><path style="opacity:1" fill="#050201" d="M 911.5,1186.5 C 920.831,1185.33 924.997,1189.33 924,1198.5C 917.924,1205.1 911.924,1205.1 906,1198.5C 905.066,1193.1 906.899,1189.1 911.5,1186.5 Z"/></g>
<g><path style="opacity:1" fill="#6a0502" d="M 1314.5,1216.5 C 1322.21,1217.42 1324.21,1221.26 1320.5,1228C 1306.04,1235.4 1291.71,1243.06 1277.5,1251C 1270.68,1251.49 1268.18,1248.33 1270,1241.5C 1284.65,1232.76 1299.49,1224.43 1314.5,1216.5 Z"/></g>
<g><path style="opacity:1" fill="#6a0502" d="M 1230.5,1261.5 C 1237.66,1260.5 1240.5,1263.5 1239,1270.5C 1238.17,1271.33 1237.33,1272.17 1236.5,1273C 1222.71,1280.06 1209.04,1287.4 1195.5,1295C 1186.97,1295.64 1184.64,1292.14 1188.5,1284.5C 1202.56,1276.81 1216.56,1269.14 1230.5,1261.5 Z"/></g>
<g><path style="opacity:1" fill="#690402" d="M 1148.5,1305.5 C 1156.04,1304.92 1158.54,1308.25 1156,1315.5C 1141.88,1323.41 1127.72,1331.24 1113.5,1339C 1104.76,1340.27 1102.09,1336.94 1105.5,1329C 1119.9,1321.14 1134.23,1313.31 1148.5,1305.5 Z"/></g>
<g><path style="opacity:1" fill="#6a0502" d="M 1066.5,1349.5 C 1072.48,1349.64 1074.98,1352.64 1074,1358.5C 1072.83,1359.67 1071.67,1360.83 1070.5,1362C 1056.71,1369.06 1043.04,1376.4 1029.5,1384C 1024.72,1384.77 1021.72,1382.77 1020.5,1378C 1021.08,1375.5 1022.42,1373.5 1024.5,1372C 1038.72,1364.73 1052.72,1357.23 1066.5,1349.5 Z"/></g>
<g><path style="opacity:1" fill="#690402" d="M 982.5,1394.5 C 990.991,1393.99 993.324,1397.49 989.5,1405C 975.326,1412.92 960.992,1420.59 946.5,1428C 939.676,1428.49 937.176,1425.33 939,1418.5C 953.482,1410.35 967.982,1402.35 982.5,1394.5 Z"/></g>
<g><path style="opacity:1" fill="#690402" d="M 899.5,1438.5 C 906.99,1437.3 909.823,1440.3 908,1447.5C 893.743,1456.05 879.243,1464.21 864.5,1472C 857.667,1473.17 854.833,1470.33 856,1463.5C 856.833,1462.67 857.667,1461.83 858.5,1461C 872.55,1453.98 886.216,1446.48 899.5,1438.5 Z"/></g>
<g><path style="opacity:1" fill="#690402" d="M 817.5,1482.5 C 822.42,1481.78 825.42,1483.78 826.5,1488.5C 826.152,1490.7 825.152,1492.53 823.5,1494C 808.885,1502.2 793.385,1508.04 777,1511.5C 770.526,1509.88 769.026,1506.22 772.5,1500.5C 788.604,1496.94 803.604,1490.94 817.5,1482.5 Z"/></g>
<g><path style="opacity:1" fill="#6a0502" d="M 708.5,1483.5 C 713.152,1484.33 717.152,1486.49 720.5,1490C 724.714,1492.27 729.047,1494.27 733.5,1496C 736.654,1498.77 737.154,1501.94 735,1505.5C 732.757,1507.28 730.257,1507.78 727.5,1507C 719.287,1503.65 711.787,1499.15 705,1493.5C 703.581,1489.08 704.748,1485.75 708.5,1483.5 Z"/></g>
</svg>
